# xmcd
# Track frame offsets:
# 182
# 10565
# 24267
# 35980
# 49092
# 62915
# 79025
# 92050
# 106335
# 119155
# 133327
# 144567
# 156835
# 166140
# 176970
# 186657
# 199052
#
# Disc length: 2861 seconds
# Revision: 5
# Processed by: cddbd v1.5.2PL0 Copyright (c) Steve Scherf et al.
# Submitted via: VisiTrax 2.9.6.190 - For more info visit www.synapsa.com
#
DISCID=f60b2b11
DTITLE=Various Artist - The Great Sound of Country Vol 1
DYEAR=1994
DGENRE=Country
TTITLE0=Billie Jo Spears - I'm Gonna Be A Country Girl Again
TTITLE1=The Kendalls - Heartaches By The Number
TTITLE2=Karl Denver - Wimoweh
TTITLE3=Loretta Lynn - Let Your Love Flow
TTITLE4=Freddy Fender - Wasted Days, Wasted Nights
TTITLE5=Bill Anderson - Detroit City
TTITLE6=Tommy Overstreet - Send Me No Roses
TTITLE7=Ray Stevens - Deep Purple
TTITLE8=Hank Thompson - I Recall A Gypsy Woman
TTITLE9=Diana Trask - There Goes My Everything
TTITLE10=Hank Locklin - Send Me The Pillow That You Dream On
TTITLE11=Faron Young - Counrty Girl
TTITLE12=Jeannie C Riley - The Girl Most Likely
TTITLE13=Johnny Paycheck - Heartbreak Tennessee
TTITLE14=Carl Perkins - Everybody's Trying To Be My Baby
TTITLE15=Bobby Bare - Music City Usa
TTITLE16=Cash McCall - Across The Wide Missouri
EXTD=
EXTT0=
EXTT1=
EXTT2=
EXTT3=
EXTT4=
EXTT5=
EXTT6=
EXTT7=
EXTT8=
EXTT9=
EXTT10=
EXTT11=
EXTT12=
EXTT13=
EXTT14=
EXTT15=
EXTT16=
PLAYORDER=
